/* XPM */
static char *_d700fd7be3141459c19e5cca64dc40ac4a1dKjjsBUn2E4k[] = {
/* columns rows colors chars-per-pixel */
"16 16 7 1 ",
"  c None",
". c #25131A",
"X c #523B40",
"o c #895A45",
"O c #BF704D",
"+ c #90919E",
"@ c #ADC1CF",
/* pixels */
"                ",
"                ",
"                ",
"                ",
"     ......     ",
"    .@OOOO@.    ",
"   .+oooooo+.   ",
"   .@@@@@@@@.   ",
"   ...++++...   ",
"   .+oX++Xo+.   ",
"   .+oXXXXo+.   ",
"   .@XXooXX@.   ",
"   .@++++++@.   ",
"   ..........   ",
"                ",
"                "
};
