/* XPM */
static char *ba1dd5d5503c46ec8f0e91efd843f44aSHbJ6KPA99ZbZUQg[] = {
/* columns rows colors chars-per-pixel */
"16 16 9 1 ",
"  c None",
". c #25131A",
"X c #895A45",
"o c #BF704D",
"O c #ADC1CF",
"+ c #523B40",
"@ c #90919E",
"# c #724736",
"$ c white",
/* pixels */
"............... ",
"XooXooXooXooXoo.",
"XooXooXooXooXoo.",
"................",
".O.+XX+XX+XX+XX.",
".O.+XX+XX+XX+XX.",
".O.+XX+XX+XX+XX.",
".O.....XX+X.@OO.",
".@@@OOO.X+.@OO@.",
".@O...O.X+X.....",
".O.+.@OO.+XX+XX.",
".O.+@X+.O.X.@OO.",
".O.+@X+.@..@OO@.",
".O.+X@@@.+#.....",
".OO.##+##+##+##.",
"................"
};
