/* XPM */
static char *ef46b2c440b4491dbad71f83b853f0359Oe7WQC1JHRUBp5W[] = {
/* columns rows colors chars-per-pixel */
"16 16 6 1 ",
"  c None",
". c #25131A",
"X c #523B40",
"o c #895A45",
"O c #90919E",
"+ c white",
/* pixels */
"....            ",
"XXXX.           ",
"oooo.           ",
"oooo.           ",
"XXXX.           ",
"oooo.           ",
"oooo.           ",
"XXXX.           ",
"oooo.           ",
"oooo.           ",
"XXXX.           ",
"oooo.           ",
"oooo.           ",
"XXXX.           ",
".....           ",
"OOOO.           "
};
