/* XPM */
static char *xpm_[] = {
/* columns rows colors chars-per-pixel */
"64 64 190 2 ",
"   c #080506",
".  c #09050A",
"X  c #0C080D",
"o  c #121009",
"O  c #18110B",
"+  c #18180E",
"@  c #131311",
"#  c #191614",
"$  c #1C1A15",
"%  c #18141B",
"&  c #1E1A1A",
"*  c #241D1A",
"=  c #22211A",
"-  c #27251A",
";  c #332A16",
":  c #383418",
">  c #1E1622",
",  c #241B2A",
"<  c #271A31",
"1  c #291C33",
"2  c #262126",
"3  c #282727",
"4  c #2D2A25",
"5  c #2F2E2F",
"6  c #332D24",
"7  c #32282A",
"8  c #39352A",
"9  c #2C2132",
"0  c #2F2933",
"q  c #2F273B",
"w  c #2F283D",
"e  c #322633",
"r  c #332936",
"t  c #342438",
"y  c #31293D",
"u  c #3C2C3D",
"i  c #3D3536",
"p  c #3E3931",
"a  c #422A2B",
"s  c #483D23",
"d  c #423839",
"f  c #463B3C",
"g  c #54422A",
"h  c #4C403D",
"j  c #675A2B",
"k  c #725E2F",
"l  c #6E5730",
"z  c #68622A",
"x  c #7E6F2F",
"c  c #746532",
"v  c #786A3B",
"b  c #7D7333",
"n  c #7D753C",
"m  c #342645",
"M  c #332C43",
"N  c #3B2C43",
"B  c #362648",
"V  c #362A4D",
"C  c #382F49",
"Z  c #3C3543",
"A  c #39314B",
"S  c #392B52",
"D  c #3E2F5A",
"F  c #44324D",
"G  c #493B4D",
"H  c #412F57",
"J  c #493654",
"K  c #4D3955",
"L  c #523D5E",
"P  c #553F63",
"I  c #5D4541",
"U  c #644D4B",
"Y  c #564064",
"T  c #7D7A66",
"R  c #7D7D7D",
"E  c #807737",
"W  c #8A7B35",
"Q  c #81763A",
"!  c #85793D",
"~  c #F5741F",
"^  c #F57622",
"/  c #F67C24",
"(  c #F57D30",
")  c #918A3B",
"_  c #C79C3F",
"`  c #D69F3F",
"'  c #F78326",
"]  c #F6852B",
"[  c #F78A29",
"{  c #F88B29",
"}  c #F8942D",
"|  c #FA9D2F",
" . c #F68734",
".. c #F6873D",
"X. c #F68B3E",
"o. c #ED9737",
"O. c #F79333",
"+. c #F89232",
"@. c #FA9D31",
"#. c #FBA02F",
"$. c #FBA532",
"%. c #FCAC34",
"&. c #F9A23A",
"*. c #FBAE3B",
"=. c #FCB037",
"-. c #FCB33B",
";. c #FCB83E",
":. c #968C44",
">. c #AA9D43",
",. c #AFA044",
"<. c #BBAE4B",
"1. c #92907B",
"2. c #F68740",
"3. c #F89745",
"4. c #F7924C",
"5. c #F79451",
"6. c #C8AC46",
"7. c #D2A342",
"8. c #C5B94F",
"9. c #DBBF4F",
"0. c #F9AE41",
"q. c #FBB343",
"w. c #F8B747",
"e. c #FDBD43",
"r. c #FABA49",
"t. c #FBBA54",
"y. c #FCBB5B",
"u. c #D7C755",
"i. c #DFD15A",
"p. c #FCC446",
"a. c #FCC64B",
"s. c #FCCB4C",
"d. c #EAC752",
"f. c #FBCC53",
"g. c #FCCC58",
"h. c #E6D257",
"j. c #E4D45B",
"k. c #E9D95D",
"l. c #FDD554",
"z. c #FCD957",
"x. c #FCD458",
"c. c #FCDD5B",
"v. c #EEE25F",
"b. c #F3E25E",
"n. c #FEE25D",
"m. c #EFD46D",
"M. c #FDD669",
"N. c #FCC774",
"B. c #EFE160",
"V. c #F3E360",
"C. c #FCE561",
"Z. c #FDE862",
"A. c #FCE76A",
"S. c #FEE96C",
"D. c #F6E676",
"F. c #FDE775",
"G. c #FEEA7A",
"H. c #929292",
"J. c #F9B484",
"K. c #FBC585",
"L. c #FCD187",
"P. c #FBC39A",
"I. c #FDD79B",
"U. c #FDED8A",
"Y. c #FDEC95",
"T. c #FDE19B",
"R. c #FDEF9B",
"E. c #FAC4A3",
"W. c #FBCBA3",
"Q. c #FBD5A1",
"!. c #FCDAA4",
"~. c #FDDEAB",
"^. c #E3DFBA",
"/. c #FCD9B4",
"(. c #FDEFA1",
"). c #FEF3BE",
"_. c #F2EFC7",
"`. c #FEF3C6",
"'. c #FFF6CC",
"]. c #E3E3DF",
"[. c #FEEDD6",
"{. c #FFF5D4",
"}. c #FEF0DE",
"|. c #E3E3E4",
" X c #FEF6E4",
".X c #FAF7EB",
"XX c #FEF6EC",
"oX c #F2F2F3",
"OX c #FEFBF0",
"+X c #FEF8F5",
/* pixels */
"5 5 5 5 5 5 5 5 5 5 5 5 5 5 5 5 5 5 5 5 5 5 5 5 5 5 5 5 5 5 r 5 5 5 5 5 5 5 5 5 5 5 5 5 5 5 5 5 5 5 5 5 5 5 5 5 5 5 5 5 5 5 5 5 ",
"5 5 5 5 5 0 5 5 5 5 5 5 5 5 5 5 5 0 5 5 5 5 5 5 5 5 5 5 5 5 5 5 5 5 5 5 5 5 5 5 5 0 5 5 5 5 5 5 5 5 5 5 5 5 5 5 5 5 5 5 5 5 5 5 ",
"Y Y Y Y Y Y Y Y Y Y Y Y Y Y Y Y Y Y Y Y Y Y Y Y 5 5 5 5 5 5 Y Y Y Y Y Y Y Y Y Y Y Y Y Y Y Y Y Y Y Y Y Y Y Y Y Y Y Y 5 5 5 5 5 5 ",
"Y Y Y Y Y Y Y Y Y Y Y Y Y Y Y Y Y Y Y Y Y Y Y Y 5 5 5 5 5 5 Y Y Y Y Y Y Y Y Y Y Y Y Y Y Y Y Y Y Y Y Y Y Y Y Y Y Y Y 5 5 5 5 5 5 ",
"Y Y Y Y Y Y Y Y Y Y D D Y Y Y Y Y Y Y Y Y Y Y Y Y Y 5 5 Y Y Y Y Y Y Y Y Y Y Y Y D D Y Y Y Y Y Y D D Y Y Y Y Y Y Y Y Y Y 5 5 Y Y ",
"Y Y Y Y Y Y Y Y Y Y D D Y Y Y Y Y Y Y Y Y Y Y Y Y Y 5 5 Y Y Y Y Y Y Y Y Y Y Y Y D D Y Y Y Y Y Y D D Y Y Y Y Y Y Y Y Y Y 5 5 Y Y ",
"D D D D Y Y D D D D D D D D Y Y D D D D H H P Y Y Y 5 5 Y Y Y Y D D D D Y Y D D D D D D Y Y D D D D D D D D D D D D Y Y 5 5 Y Y ",
"D D D D Y Y D D D D D D D H Y Y D D D D D H P P Y Y 5 5 Y Y Y Y D D H D Y Y D D D D D D Y Y D D D D D D D D D D D D Y Y 5 5 Y Y ",
"D D D D D D D D D D A A D D D D D m < < , , , , t t * & t t , , 9 > 9 1 < < < < < < < < < < 1 B D D D D D D A A D D D D 5 5 D D ",
"D D D D D D D D D D A A D D D D H 1 . . . .     X       X .     X . . . . . . . . . .       X > D D D D D D A A D D D D 5 5 D D ",
"A A A A A A A A A A A A A A A A N 7 o o o o o o o o o o o o o o o o @ @ @ @ @ @ @ @ @ X o o O * A A A A A A A A A A A A 5 5 A A ",
"A A A A A A A A A A A A A A C r a l b b E x b b b b b b b b b b b b n T R R R R R R T n b b b k i w A A A A A A A A A A 5 5 A A ",
"A A A A A A A A A A A A A A y # ; :.j.j.i.j.j.h.h.j.j.i.j.j.j.j.i.i.m.^.|.|.|.|.|.].^.j.j.i.j.,.; > C A A A A A A A 5 5 5 5 5 5 ",
"A A A A A A A A A A A A A A r O ; >.Z.Z.C.C.C.Z.C.C.Z.C.n.Z.C.C.C.Z.D.'.+X+X+X+X+X.X`.D.n.A.V.<.: # N A A A A A A A 5 5 5 5 5 5 ",
"5 5 5 5 5 5 5 5 5 5 5 5 7 6 s j x _ r.w.r.e.r.r.r.r.w.r.r.r.r.r.r.r.t.K.E.E.E.E.E.E.K.t.r.r.r.7.b j g 4 5 5 5 5 5 5 5 5 5 5 5 5 ",
"5 5 5 5 5 5 5 5 5 5 5 r 4 - j 8.9.o.] ] ] ] ] ] ] ] ] ] ] ] ] ] ] ]  ...2.2.2.2.2.X. .] ] ] ] o.9.8.c * 3 5 5 5 5 i 5 5 5 5 5 5 ",
"Y Y Y Y Y Y 5 5 5 5 5 5 F & z k.c.O.^ ~ ^ ^ ^ ~ ^ ^ ^ ^ ^ ^ ~ ~ ~ ~ ~ ~ ~ ~ ~ ~ ~ ~ ^ ^ ^ ^ ~ O.x.j.b & N P P Y Y Y Y Y Y Y Y Y ",
"Y Y Y Y Y Y 5 5 5 5 5 5 F $ z k.c.&.' ' ' ' ' / ' ' / ' ' / ' ' ' ' ' ' ' ' ' ' ' ' ' ' ' / ^ +.x.j.b # N Y Y Y Y Y Y Y Y Y Y Y ",
"Y Y Y Y Y Y Y Y 5 5 Y P F $ z k.n.-.#.| | $.@.| #.$.@.| | | | #.| #.| #.#.| | | | | | #.| ' ^ +.x.j.b # N P Y P Y Y D D D D Y Y ",
"Y Y Y Y Y Y Y Y 5 5 Y P F $ z k.n.e.%.%.%.%.%.%.%.%.%.%.%.%.%.%.%.%.%.%.%.%.%.%.%.%.%.%.$.[ ^ O.x.j.b % N Y Y P Y Y D D D D Y Y ",
"Y Y D D Y Y Y Y 5 5 Y P F $ z k.c.e.%.%.%.%.%.%.%.#.$.*.;.=.;.-.=.-.-.r.t.q.*.%.%.%.=.%.$.{ ^ O.x.j.b % N Y D D D D D D D D D D ",
"Y Y D D Y Y Y Y 5 5 Y P F # z k.n.e.%.%.%.%.%.%.$.{ { -.s.l.l.l.l.l.M.T.~.K.-.%.%.%.%.%.$.[ ^ O.x.j.b % F Y D D D D D D D D D D ",
"D D D D A A Y Y 5 5 Y Y w $ z k.n.e.%.%.%.%.%.%.@./ ' q.n.n.n.Z.Z.n.F.'.XX~.*.%.%.%.%.%.$.[ ^ O.x.j.b % m D D D D D A A A A D D ",
"D D D D A A Y Y 5 5 Y Y q # z k.n.e.%.%.%.%.%.%.| ' ] e.n.Z.Z.n.Z.Z.G.`. X~.r.-.%.%.%.=.%.{ ^ O.x.j.b > V D D D D D A A A A D D ",
"D D A A A A A A 5 5 A A q + z k.n.e.%.%.%.%.} { | *.r.f.C.Z.Z.Z.Z.Z.S.U.(.(.Q.L.t.%.%.%.$.{ ^ O.z.j.b & V D D D A A A A D D D D ",
"D D A A A A A A 5 5 A A q $ z k.n.e.%.%.%.%.{ / +.f.n.C.n.Z.Z.Z.Z.Z.Z.Z.S.R. X[.N.%.%.=.$.{ ^ } x.j.n > V D D D A A A A D D D D ",
"A A A A A A A A 5 5 A A w # z k.n.e.%.%.%.$.[ ^ O.x.Z.C.C.C.C.C.n.n.C.C.C.R.+X}.N.%.%.%.$.{ ~ O.x.j.b 2 M A A A A A A A A A A A ",
"A A A A A A A A 5 5 A A w + z k.n.e.%.%.%.$.[ ^ O.x.C.C.C.c.r.w.;.e.a.x.A.R.OX}.N.%.%.%.$.{ / O.x.j.b > C A A A A A A A A A A A ",
"A A A A A A 5 5 5 5 5 5 M $ z k.c.e.%.%.%.$.[ ^ O.z.C.C.C.f.O.] ( ] O.f.A.R.OX}.N.%.%.%.%.{ ^ O.x.j.b 2 A A A A A A A A A A A A ",
"A A A A A A 5 5 5 5 5 5 w $ z k.n.e.%.%.%.$.[ ^ O.x.Z.V.C.f.[ ^ ^ ^ [ a.A.R.XX[.N.%.%.=.$.{ ^ O.x.j.n 2 A A A A A A A A A A A A ",
"5 5 5 5 5 5 5 5 5 5 5 5 3 + z k.n.e.%.%.%.$.[ ~ O.x.A.C.C.f.@.' ' ' } e.g.F.(.W.y.%.%.%.$.[ ^ O.x.j.b = 5 5 5 5 5 5 5 5 5 5 0 5 ",
"5 5 5 5 5 5 5 5 5 5 5 5 3 + z k.n.e.%.%.%.%.[ ~ O.z.C.C.C.x.*.@.@.$.$.-.q.q.y.t.-.%.%.%.$.[ ^ O.x.j.b = 5 5 5 5 5 5 5 5 5 5 5 5 ",
"Y Y Y Y Y Y Y Y Y Y Y Y J & z k.n.;.%.%.%.$.[ ^ O.x.C.C.n.z.;.%.%.%.%.%.%.%.%.%.%.%.%.%.%.[ ^ +.x.j.E * 5 5 5 5 Y Y Y Y Y Y Y Y ",
"Y Y Y Y Y Y Y Y Y Y Y Y J * z k.n.p.%.%.%.$.[ ^ O.x.C.C.Z.z.;.%.%.%.%.%.%.%.%.%.%.%.%.=.$.{ ^ +.x.h.b = 5 5 5 5 Y Y Y Y Y Y Y Y ",
"Y Y Y Y Y Y Y Y Y Y Y Y J & z k.n.e.%.%.%.$.[ ^ O.z.C.C.C.z.-.%.%.%.%.%.%.%.%.%.%.%.%.%.$.{ ^ +.x.j.n r 5 5 Y Y Y Y Y Y D D Y Y ",
"Y Y Y Y Y Y Y Y Y Y Y Y J & z k.n.e.%.%.%.$.[ ^ O.x.C.C.C.z.;.%.%.%.%.%.%.%.%.%.%.%.%.%.$.{ / +.x.j.Q u 5 r Y Y Y Y Y Y D H Y Y ",
"D D Y Y D D D D D D Y Y V & z j.n.p.%.%.%.$.[ ^ O.x.A.V.V.c.;.%.%.%.%.=.=.q.q.q.*.%.%.%.$.{ ^ O.x.j.Q u e 5 Y Y Y Y D D D D D D ",
"D D Y Y D D D D D D Y Y V % z k.n.;.%.%.%.$.[ ^ O.z.C.Z.n.z.;.%.%.%.-.p.s.M.!.I.y.%.%.%.%.{ ^ O.x.j.Q u 5 5 P P Y Y D D D D D D ",
"D D D D D D D D D D A A V & z k.n.e.%.%.%.%.{ ^ O.x.Z.C.C.x.;.%.%.%.;.l.A.Y. X[.N.%.%.%.$.{ ^ O.x.j.! d 5 5 P P D D D D A A D D ",
"D D D D D D D D D D A A V & z k.n.e.%.%.%.$.{ ^ O.x.C.C.C.z.e.%.%.%.;.x.Z.R.OX}.N.%.%.*.$.{ ^ O.x.j.! Z 5 5 P P D D D D A A D D ",
"D D D D A A A A D D D D M # z k.n.;.%.%.%.$.[ ~ O.z.C.C.C.c.s.a.a.a.s.c.A.R.OX}.N.%.%.%.$.{ ^ O.x.j.b 5 5 5 A A D D D D D D A A ",
"D D D D A A A A D D D D M $ z k.n.p.%.%.%.$.[ / O.x.Z.C.C.C.n.n.n.n.n.n.Z.R.OX}.N.%.%.%.$.{ ^ O.x.j.! r 5 5 A A D D D D D D A A ",
"D D A A A A D D D D D D M # z k.n.p.%.%.%.$.[ ~ O.x.C.C.C.n.C.Z.C.Z.Z.C.A.R.XX[.N.%.%.%.$.{ ^ O.x.j.n 0 5 5 A A A A D D D D D D ",
"D D A A A A D D D D D D w # z k.c.;.%.%.%.%.} [ O.w.r.x.C.C.V.Z.C.n.A.U.Y.T.W.P.y.%.%.%.%.{ ^ +.x.j.! y 5 5 A A A A D D D D D D ",
"A A A A A A A A D D A A y $ z k.n.e.%.%.%.%.$.#.| [ +.w.n.A.C.Z.Z.V.G.).{.W.4.X.@.%.%.%.%.{ ^ +.x.j.E r 5 5 A A A A A A D D A A ",
"A A A A A A A A D D A A y $ z k.c.p.%.%.%.%.%.%.#.^ / 0.n.Z.C.Z.C.Z.D.{.XXE.( ^ @.%.%.%.$.{ ^ O.x.j.n r 5 5 A A A A A A D D A A ",
"A A A A A A A A A A A A M $ z k.n.e.%.%.%.%.%.%.| ] ] &.f.f.f.a.f.f.g.I./.J. .' | %.%.%.$.{ ^ O.x.j.E 4 5 5 5 5 A A A A A A A A ",
"A A A A A A A A A A A C M & z k.n.e.%.%.%.%.%.%.%.#.| +.+.+.+.+.O.+.X.4.5.3.@.@.%.%.%.%.$.{ ^ O.x.j.E 4 5 5 5 5 A A A A A A A A ",
"5 5 5 5 5 5 5 5 5 5 5 5 3 $ z v.c.e.%.%.%.%.%.%.%.%.%.{ ^ ~ ^ ^ ^ ~ ~ ~ ~ { $.%.%.%.%.%.$.[ ^ O.x.j.E 4 5 5 5 5 5 5 5 5 5 5 5 5 ",
"5 5 5 5 5 5 5 5 5 5 5 5 5 $ z k.n.e.%.%.%.%.%.%.%.%.%.} / ~ / / / ' ' ~ / { %.%.%.%.%.%.$.[ ^ O.x.j.E 4 5 r 5 5 5 5 5 5 5 5 5 5 ",
"Y Y Y Y Y Y Y Y Y Y 5 5 4 - z k.n.e.%.%.%.%.%.%.%.%.%.$.} | } | | } } } | #.%.%.%.%.%.%.%.[ ^ O.l.j.! G Y Y Y Y Y Y Y Y Y Y Y Y ",
"Y Y Y Y Y Y Y Y Y Y 5 5 4 - z k.C.e.%.%.%.%.%.%.%.%.%.$.%.%.%.%.%.%.%.$.%.%.%.%.%.%.%.%.$.[ ^ O.x.k.! K Y Y Y Y Y Y Y Y Y Y Y Y ",
"Y Y Y Y Y Y Y Y Y Y Y Y 5 - j u.k.e.%.=.=.=.-.-.*.=.%.*.=.=.=.=.%.=.=.-.0.q.q.*.-.-.*.=.%.} / O.d.u.Q J P P Y Y Y Y Y Y D D Y Y ",
"Y Y Y Y Y Y Y Y Y Y Y Y 5 4 I c W 6.s.s.s.s.s.s.s.s.s.s.s.s.s.a.a.s.f.L.I.I.I.I.I.I.L.g.a.r.q.` W v U L P P Y Y Y Y Y Y D D Y Y ",
"D D Y Y D D D D Y Y Y Y 5 5 K - : ,.Z.Z.n.n.Z.n.Z.C.n.C.n.Z.C.C.n.C.G.`. X+X X.X.X X).A.n.n.b.<.s e H D P Y H D D D D D D D D D ",
"D D Y Y D D D D Y Y Y Y 5 5 L 9 ; >.v.V.V.v.B.B.b.V.V.V.V.V.b.V.V.V.D._.oXoXoXoXoXoX_.D.b.V.v.<.8 m D D Y Y H D D D D D D D D D ",
"A A D D D D D D A A Y Y 5 0 Y J i c ) ) ) ) ) ) ) ) ) ) ) ) ) ) ) ) :.1.H.H.H.H.H.H.1.:.) ) ) n F D D D D D D D D D D D A A D D ",
"A A D D D D D D A A Y Y 5 5 Y Y A i f i d i h i d d d d i p p p i i i Z Z A Z Z A I 8 8 h h p Z D D D D D D D D D D D D A A D D ",
"D D D D D D A A A A A A 5 5 A A A A A M S S C M C M S S S S S S S V V S y M M M M w 5 3 M M C C A A D D D D D D D D A A A A D D ",
"D D D D D D A A A A A A 5 5 A A A A A A D D A A A A D D D D D D D D D D A A A A A A 5 5 C C A A A A D D D D D D D D A A A A D D ",
"A A D D A A A A A A A A 5 5 A A A A A A A A A A A A A A A A A A D D A A A A A A A A 5 5 A A A A A A A A D D A A A A A A A A A A ",
"A A D D A A A A A A A A 5 5 A A A A A A A A A A A A A A A A A A D D A A A A A A A A 5 5 A A A A A A A A D D A A A A A A A A A A ",
"A A A A A A A A A A 5 5 5 5 5 5 A A A A A A A A A A A A A A A A A A A A A A A A 5 5 5 5 5 5 A A A A A A A A A A A A A A A A A A ",
"A A A A A A A A A A 5 5 5 5 5 5 A A A A A A A A A A A A A A A A A A A A A A A A 5 5 5 5 5 5 A A A A A A A A A A A A A A A A A A "
};
