/* XPM */
static char *xpm_[] = {
/* columns rows colors chars-per-pixel */
"64 64 52 1 ",
"  c #0A0B15",
". c #0C0B15",
"X c #241527",
"o c #251527",
"O c #251628",
"+ c #251629",
"@ c #291829",
"# c #311B26",
"$ c #331C27",
"% c #351C27",
"& c #341D28",
"* c #341D29",
"= c #361D28",
"- c #391F29",
"; c #2E2C2F",
": c #2F2E2F",
"> c #302D2F",
", c #4B2A31",
"< c #4B2B32",
"1 c #4D2B32",
"2 c #4E2C32",
"3 c #4C2B34",
"4 c #4E2C35",
"5 c #502D33",
"6 c #533034",
"7 c #3A3149",
"8 c #38304A",
"9 c #39314B",
"0 c #3D334B",
"q c #3D2E57",
"w c #3E2E57",
"e c #3D2E58",
"r c #3E2F5A",
"t c #41315A",
"y c #543E60",
"u c #553F62",
"i c #774640",
"p c #784740",
"a c #794740",
"s c #7A4841",
"d c #7C4942",
"f c #7D4B42",
"g c #564064",
"h c #A67255",
"j c #A67356",
"k c #A87355",
"l c #A97557",
"z c #AA7456",
"x c #AB7556",
"c c #AA7557",
"v c #AB7656",
"b c #AD7757",
/* pixels */
"::::::::::::::::::::::::::::::::::::::::::::::::::::::::::::::::",
"::::::::::::::::::::::::::::::::::::::::::::::::::::::::::::::::",
"gggggggggggggggggggggggg::::::gggggggggggggggggggggggggggg::::::",
"gggggggggggggggggggggggg::::::gggggggggggggggggggggggggggg::::::",
"ggggggggggrrgggggggggggggg::ggggggggggggrrggggggrrgggggggggg::gg",
"ggggggggggrrgggggggggggggg::ggggggggggggrrggggggrrgggggggggg::gg",
"rrrrggrrrrrrrrggrrrrrrgggg::ggggrrrrggrrrrrrggrrrrrrrrrrrrgg::gg",
"rrrrggrrrrrrrrggrrrrrrgggg::ggggrrrrggrrrrrrggrrrrrrrrrrrrgg::gg",
"rrrrrrrrrr99rrrrrrrr9999gg::gg9999rrrrrrrrrrrrrrrrrrrr99rrrr::rr",
"rrrrrrrrrr99rrrrrrrr9999gg::gg9999rrrrrrrrrrrrrrrrrrrr99rrrr::rr",
"99999999999999999999999999::999999999999rrrr9999999999999999::99",
"99999999999999999999999999::999999999999rrrr9999999999999999::99",
"999999999999999999999999::::::9999999999999999999999999999::::::",
"999999999999999999999999::::::9999999999999999999999999999::::::",
"::::::::::::::::::::::::::::::>>::::::::::::::::::::::::::::::::",
":::::::::::::::::::::::::::::::>::::::::::::::::::::::::::::::::",
"gggggg::::::gggggggggggggggggggggggggggggg::>>>>gggggggggggggggg",
"gggggg::::::gggggggggggggggggguugggggggggg::>>>>gggggggggggggggg",
"gggggggg::ggggggggggggggggggggtrrrgggggggggg>>ggggggggggggrrrrgg",
"gggggggg::ggggggggggggggggggggrrrrgggggggggg:>uuggggggggggrrrrgg",
"ggrrgggg::ggggrrrrggrrrrrrugrrrrrrrrggrrgggg>>uuggrrggrrrrrrrrrr",
"ggrrgggg::ggggrrrrggrrrrrrugrrrrrrrrggrrgggg>>uuggrrggrrrrrrrrrr",
"rrrr99gg::gg99rrrrrrrr99rrrrrr999999rrrr99gg>>uu99rrrrrrrr9999rr",
"rrrr99gg::gg99rrrrrrrr99rrrrrr889999rrrr9blbxxxxllltrrrrrr9999rr",
"rr999999::999999rrrr999999rrrrrrrrrrrr99kbddbbdddzbbttet9999rrrr",
"rr999999::999999rrrr999999rrrrrrrrrrrr9jbbbk5-kdzddbiktt9999rrrr",
"99999999::9999999999999999998hlxlllb099lbbkh5%kddpddkbx099999999",
"99999999::9999999993<313hlllbbbbbbbbljlbkbkhb5-idpiiddazl0999999",
"999999::::::99999311111155lffsflblbbbbbbxxkhbx5pp@@@aa55>*299999",
"999999::::::99993111111111521plbfsffbbbbxdhhffppdpiia511%...9999",
"::::::::::::::<11111111111111555ssslbfflh5xbdppdpd35a1,%%% @::::",
":::::::::::::<1111ipp2111i21111pssslfdlbdpdxbfdpdpp351%%%%+*::::",
"gggggguugguu3111115paa5paa5111aasssdsslbbssffasssss511%%%%X$uugg",
"ggggguuuguu3111padp55dppp5111115ssssssdbfssssasss2ps11%%$%X$uugg",
"gggggguuggu311115appaapdp511aapdssssssslfasssssap5221*%*ooo$rrgg",
"gggggguugg5111111adpp55ppp1111ppsssssssdsssss25a512%%%%$$$$yrrgg",
"truurrrrtt431p1111aa51apfpp5111pssssssssssssaa11*%%-%%**%$rrrrrr",
"ttuurrrrt43311ppaadpaaappdad5115sssssssssss551%%%%uu;:uuuurrrrrr",
"rrtrrrrrt3331pdpdppdpdppfa55111pssssssssa5aa1%%wwruu::ugrrrr99rr",
"rrrrrrrr3111pdpp5adp5ada51111ppssssssss4aa5511wrrruu::uurrrr99rr",
"rrrr999*%11111111ap5ppdpp5111p5psssspdp51a1119trrr99::99rrrrrr99",
"rrrr999*$%111111ppdppdpdp511111pssssfpda151199rrrr99::99rrrrrr99",
"rrr999r*,1111p1pppdddpdpsp1115apssssa5dp11twrrrr9999::9999rrrrrr",
"rr9999r*%11111ppd5appd5pp5111paa4sssa51518rrrrrr9999::9999rrrrrr",
"9999999*,1%%11aa5ppdd51as5111p512psssp117999tt999999::999999rr99",
"9999999*%%%,1,551pdp55pas2111111is21p5119999rw999999::999999rr99",
"9999999*%$,111111ppdppppaa511*<14221p1117999899999::::::99999999",
"9999999*%%111111iddpddpdaf111%%%%2<151119999899999::::::99999999",
":::::::**43%311pps2s25p55p*111%%%%<11++:::::::::::::::::::::::::",
":::::>:***%%33pps2421pp115111%$:o$%<1+::::::::::::::::::::::::::",
"gguugguu**$$%11511<2151111%%%%ugoo$%+ouu::::::gggguugggggggggggg",
"ggguggggu*%%$11%12%21%111%%%*uug+X%$ougg::::::gggggggggggggggggg",
"gggggggguu*%%1*%%%$,4%*%%%$wuugggOO*Xyuggg::ggggggggggggggggrrgg",
"gggggguugu**$%$%%$%$%$$yuurruuggyoXoXyuggg::ggggggggggggggggrrgg",
"trugtrrrggu*%$%o$%%%$%ygtrrrrrggrXXX+rgggg::ggggrrrrggrrrrrrrrrr",
"rrugrrrrgguu:%$$XX$XqrggrrrrrrggrrOX++uggg::ggggrrrrggrrrrrrrrrr",
"99rrrrrr99gg>:uuOXXXOrrrrrrrrr99rrqXXXO8gg::gg99rrrrrrrrrrrr99rr",
"99rrrrrr99gg>>gg8OXXXrrrrrrrrr99rrrrOXX8gg::gg99rrrrrrrrrrrr99rr",
"rrrrrr999999::999888wr8999rrrrrrrrrr888999::999999rrrrrrrr9999rr",
"rrrrrr999999::999999rr8999rrrrrrrrrr999999::999999rrrrrrrr9999rr",
"99rr99999999::999999999999999999rr99999999::99999999rr9999999999",
"99rr99999999::999999999999999999rr99999999::99999999rr9999999999",
"9999999999::::::999999999999999999999999::::::999999999999999999",
"9999999999::::::999999999999999999999999::::::999999999999999999"
};
